<svg width="16" height="16" viewBox="0 0 16 16" fill="none" xmlns="http://www.w3.org/2000/svg">
<path fill-rule="evenodd" clip-rule="evenodd" d="M8.90236 5.83333H2.66669C2.39054 5.83333 2.16669 5.60948 2.16669 5.33333C2.16669 5.05719 2.39054 4.83333 2.66669 4.83333H8.90236C9.12001 4.06383 9.8275 3.5 10.6667 3.5C11.5059 3.5 12.2134 4.06383 12.431 4.83333H13.3334C13.6095 4.83333 13.8334 5.05719 13.8334 5.33333C13.8334 5.60948 13.6095 5.83333 13.3334 5.83333H12.431C12.2134 6.60284 11.5059 7.16667 10.6667 7.16667C9.8275 7.16667 9.12001 6.60284 8.90236 5.83333ZM9.83335 5.33333C9.83335 4.8731 10.2064 4.5 10.6667 4.5C11.1269 4.5 11.5 4.8731 11.5 5.33333C11.5 5.79357 11.1269 6.16667 10.6667 6.16667C10.2064 6.16667 9.83335 5.79357 9.83335 5.33333Z" fill="white"/>
<path fill-rule="evenodd" clip-rule="evenodd" d="M7.09768 11.1667H13.3334C13.6095 11.1667 13.8334 10.9428 13.8334 10.6667C13.8334 10.3905 13.6095 10.1667 13.3334 10.1667H7.09768C6.88003 9.39716 6.17254 8.83333 5.33335 8.83333C4.49417 8.83333 3.78667 9.39716 3.56903 10.1667H2.66669C2.39054 10.1667 2.16669 10.3905 2.16669 10.6667C2.16669 10.9428 2.39054 11.1667 2.66669 11.1667H3.56903C3.78667 11.9362 4.49417 12.5 5.33335 12.5C6.17254 12.5 6.88003 11.9362 7.09768 11.1667ZM4.50002 10.6667C4.50002 10.2064 4.87312 9.83333 5.33335 9.83333C5.79359 9.83333 6.16669 10.2064 6.16669 10.6667C6.16669 11.1269 5.79359 11.5 5.33335 11.5C4.87312 11.5 4.50002 11.1269 4.50002 10.6667Z" fill="white"/>
</svg>
