<svg width="18" height="16" viewBox="0 0 18 16" fill="none" xmlns="http://www.w3.org/2000/svg">
<path fill-rule="evenodd" clip-rule="evenodd" d="M6.264 9.9062H9.81139C10.5512 9.9062 11.1585 10.5142 11.1585 11.2586C11.1585 12.0011 10.5512 12.6087 9.81139 12.6087H5.79096L6.264 9.9062ZM10.8511 5.27205L9.09773 6.55568L9.59838 5.01457C3.95552 6.65919 1.27884 10.7522 0 16H12.0288C14.4526 16 16.435 14.0082 16.435 11.5755C16.435 10.0202 15.6236 8.64537 14.4056 7.85538C16.0877 7.38752 17.3333 5.83221 17.3333 4.00037C17.3333 1.80045 15.5397 0 13.348 0H2.79681L1.62951 6.68012C3.81749 5.25075 6.35801 4.4417 9.10967 4.00187L8.01214 3.20516L10.1848 3.21039L10.8511 1.1349L11.5196 3.21039L13.6919 3.20516L11.9315 4.48356L12.6067 6.55568L10.8511 5.27205Z" fill="white"/>
</svg>
