<svg width="25" height="24" viewBox="0 0 25 24" fill="none" xmlns="http://www.w3.org/2000/svg">
<path fill-rule="evenodd" clip-rule="evenodd" d="M12.5 3.0792L10.2872 5.3687C10.0517 5.61239 9.72731 5.75 9.3884 5.75H6.25002V8.88839C6.25002 9.2273 6.1124 9.55167 5.86872 9.7872L3.57922 12L5.86872 14.2128C6.11241 14.4483 6.25002 14.7727 6.25002 15.1116V18.25H9.3884C9.72731 18.25 10.0517 18.3876 10.2872 18.6313L12.5 20.9208L14.7128 18.6313C14.9483 18.3876 15.2727 18.25 15.6116 18.25H18.75V15.1116C18.75 14.7727 18.8876 14.4483 19.1313 14.2128L21.4208 12L19.1313 9.78721C18.8876 9.55168 18.75 9.2273 18.75 8.8884V5.75H15.6116C15.2727 5.75 14.9483 5.61239 14.7128 5.3687L12.5 3.0792ZM11.6012 1.85077C12.0926 1.34237 12.9075 1.34237 13.3988 1.85077L15.7177 4.25H19C19.6904 4.25 20.25 4.80965 20.25 5.5V8.78234L22.6493 11.1012C23.1576 11.5926 23.1577 12.4074 22.6493 12.8988L20.25 15.2177V18.5C20.25 19.1904 19.6904 19.75 19 19.75H15.7177L13.3988 22.1492C12.9075 22.6576 12.0926 22.6576 11.6012 22.1492L9.28235 19.75H6.00002C5.30966 19.75 4.75002 19.1904 4.75002 18.5V15.2177L2.35078 12.8988C1.84238 12.4074 1.84238 11.5926 2.35078 11.1012L4.75002 8.78233V5.5C4.75002 4.80964 5.30966 4.25 6.00002 4.25H9.28235L11.6012 1.85077Z" fill="white"/>
<path fill-rule="evenodd" clip-rule="evenodd" d="M7.75002 12C7.75002 9.37665 9.87666 7.25 12.5 7.25C15.1234 7.25 17.25 9.37665 17.25 12C17.25 14.6234 15.1234 16.75 12.5 16.75C9.87666 16.75 7.75002 14.6234 7.75002 12ZM12.5 8.75C10.7051 8.75 9.25002 10.2051 9.25002 12C9.25002 13.7949 10.7051 15.25 12.5 15.25C14.2949 15.25 15.75 13.7949 15.75 12C15.75 10.2051 14.2949 8.75 12.5 8.75Z" fill="white"/>
</svg>
